<svg width="1121" height="969" viewBox="0 0 1121 969" fill="none" xmlns="http://www.w3.org/2000/svg">
<path d="M417.136 100.657L417.148 100.668L417.159 100.679C417.468 100.964 417.779 101.274 418.106 101.6C434.279 117.722 448.119 128.691 464.64 135.608C481.16 142.524 500.271 145.353 526.932 145.353H979.845C1025.14 145.353 1061.88 181.95 1061.88 227.118V461.69H58.9404L58.9404 151.558C58.9404 103.71 97.8503 64.9199 145.859 64.9199H329.943C362.601 64.9199 393.925 77.749 417.136 100.657Z" fill="#15162D" stroke="white" stroke-width="2"/>
<path d="M142.245 207.866H978.571C1024.58 207.866 1061.88 245.045 1061.88 290.901V822.087C1061.88 867.943 1024.58 905.122 978.571 905.122H142.245C96.2341 905.122 58.9404 867.943 58.9404 822.087L58.9404 290.901C58.9404 245.045 96.2341 207.866 142.245 207.866Z" fill="#15162D" stroke="white" stroke-width="2"/>
</svg>
