<svg width="39" height="39" viewBox="0 0 39 39" fill="none" xmlns="http://www.w3.org/2000/svg">
<path d="M10.25 38C9.10119 37.1384 8.16875 36.0211 7.52655 34.7367C6.88434 33.4523 6.55 32.036 6.55 30.6M6.55 30.6C7.5313 30.6 8.47241 30.2102 9.1663 29.5163C9.86018 28.8224 10.25 27.8813 10.25 26.9C10.25 25.9187 9.86018 24.9776 9.1663 24.2837C8.47241 23.5898 7.5313 23.2 6.55 23.2C5.5687 23.2 4.62759 23.5898 3.9337 24.2837C3.23982 24.9776 2.85 25.9187 2.85 26.9C2.85 27.8813 3.23982 28.8224 3.9337 29.5163C4.62759 30.2102 5.5687 30.6 6.55 30.6ZM3.405 23.2C1.84147 21.0495 0.999511 18.4588 1 15.8C1 7.66 9.325 1 19.5 1C29.675 1 38 7.66 38 15.8C38 23.94 29.675 30.6 19.5 30.6C16.3197 30.6531 13.1652 30.0222 10.25 28.75" stroke="#F3F5F5" stroke-width="2" stroke-linecap="round" stroke-linejoin="round"/>
</svg>
