<svg width="39" height="39" viewBox="0 0 39 39" fill="none" xmlns="http://www.w3.org/2000/svg">
<path d="M10.25 15.8V38M25.05 8.178L23.2 15.8H33.9855C34.5599 15.8 35.1264 15.9337 35.6402 16.1906C36.154 16.4475 36.6009 16.8205 36.9455 17.28C37.2902 17.7395 37.5231 18.273 37.6258 18.8381C37.7286 19.4033 37.6983 19.9846 37.5375 20.536L33.227 35.336C33.0029 36.1045 32.5355 36.7797 31.895 37.26C31.2546 37.7403 30.4756 38 29.675 38H4.7C3.7187 38 2.77759 37.6102 2.08371 36.9163C1.38982 36.2224 1 35.2813 1 34.3V19.5C1 18.5187 1.38982 17.5776 2.08371 16.8837C2.77759 16.1898 3.7187 15.8 4.7 15.8H9.806C10.4944 15.7996 11.169 15.6073 11.754 15.2445C12.339 14.8817 12.8112 14.3629 13.1175 13.7465L19.5 1C20.3724 1.0108 21.2311 1.21861 22.0119 1.6079C22.7928 1.99719 23.4755 2.5579 24.0092 3.24813C24.5429 3.93835 24.9137 4.74026 25.0939 5.59392C25.2741 6.44759 25.2591 7.33095 25.05 8.178Z" stroke="#F3F5F5" stroke-width="2" stroke-linecap="round" stroke-linejoin="round"/>
</svg>
